<svg version="1.0" xmlns="http://www.w3.org/2000/svg" width="933.333" height="150.667" viewBox="0 0 700 113"><style>.dark g{fill:#fff}@media (prefers-color-scheme:dark){g{fill:#fff}}</style><g style="fill:#000"><path d="m503.9 7.9-2.9 2.9v38.9c0 43.3-.1 42.3 6.8 44.3 2 .5 5.8 1 8.4 1h4.7l.3 6.8c.3 6 .5 6.7 2.3 6.6 1.1 0 6.1-3 11-6.6l9-6.7 21.7-.3c21.3-.3 21.7-.3 24.2-2.7l2.6-2.4V10.2l-3.1-2.6-3.1-2.6h-79l-2.9 2.9zm83.1 4c1.4 2.7 1.4 73.5 0 76.2-1 1.8-2.4 1.9-22.8 1.9l-21.7.1-8 5.9-8 5.8-.3-3.1c-.2-2.1.2-3.5 1.3-4.4 1-.7 1.5-1.9 1.2-2.8-.5-1.2-2.5-1.5-10.6-1.5-9.2 0-10.1-.2-11.5-2.2-1.4-1.9-1.6-7.2-1.6-37.5 0-20.4.4-36.2 1-37.7l1-2.6h39.4c38.1 0 39.6.1 40.6 1.9z"/><path d="M526 24.6c-3.3 3.2-6 6.2-5.8 6.8.2.7 3.2 3.8 6.7 7 5.9 5.4 6.4 5.7 8 4.1 1.5-1.6 1.2-2-3.8-6.6l-5.5-4.9 5.4-4.8c3.3-3 5.1-5.3 4.6-6-1.3-2.2-3.5-1.2-9.6 4.4zM539.7 19.7c-.7 1.2 10.5 23.2 12.1 23.8 3.2 1.2 2.3-3.4-2.9-13.4-4.9-9.7-7.7-12.8-9.2-10.4zM558 20.7c0 .9 2.1 3.6 4.8 6l4.7 4.2-5.3 5.1c-4.4 4.2-5.1 5.4-4.2 6.5 1.5 1.8 1.9 1.5 9.3-4.8 3.1-2.7 5.7-5.7 5.7-6.6C573 29 561.9 19 559.6 19c-.9 0-1.6.8-1.6 1.7zM514.3 56.6c-.9 2.5 1.6 3.4 10.2 3.4s11.1-.9 10.2-3.4c-.5-1.3-2.4-1.6-10.2-1.6-7.8 0-9.7.3-10.2 1.6zM540.7 56.4c-.7 1.8 1.2 3.6 3.8 3.6 3 0 4.9-1.6 4.2-3.4-.8-2-7.3-2.2-8-.2zM552.7 56.4c-1.1 2.8 1.7 3.6 12.3 3.6 11 0 13.7-.7 12.7-3.4-.5-1.3-2.6-1.6-12.6-1.6-9.2 0-12 .3-12.4 1.4zM514 67c0 2 .5 2.1 7.8 1.8 6-.2 7.7-.6 7.7-1.8 0-1.2-1.7-1.6-7.7-1.8-7.3-.3-7.8-.2-7.8 1.8zM534 67c0 1.9.7 2 15 2s15-.1 15-2-.7-2-15-2-15 .1-15 2zM570 67c0 1.8.5 2.1 3.8 1.8 2.5-.2 3.7-.8 3.7-1.8s-1.2-1.6-3.7-1.8c-3.3-.3-3.8 0-3.8 1.8zM534 76.5c-2 2.4.1 3.7 5.6 3.3 4.1-.3 4.9-.6 4.9-2.3 0-1.7-.8-2-4.6-2.3-3.2-.2-5 .2-5.9 1.3zM549.3 76.5c-1.1 3 1.2 3.6 14.3 3.3 12.1-.3 12.9-.4 12.9-2.3s-.8-2-13.3-2.3c-11.4-.2-13.3 0-13.9 1.3zM19.3 25.2C9.4 35.7 5.5 46 6.2 59.9c.3 7.4.9 9.8 4 16.3 2 4.2 5.6 9.7 8.2 12.4 4.3 4.4 4.8 4.7 6.3 3.2s1.3-2-2.5-6.4C7.7 69.1 7.7 45.8 22 29.7c3.5-3.9 4-5 3-6.2-1.7-2.1-2.2-1.9-5.7 1.7zM651 23.5c-1 1.3-.5 2.3 3 6.1 14.5 15.7 14.5 39.2 0 55.7-4 4.5-4.2 5-2.7 6.5s1.9 1.4 4.8-1.3c1.8-1.7 4.9-5.6 6.9-8.7 10.9-16.6 9-39.7-4.4-54.6-5.2-5.7-5.7-5.9-7.6-3.7zM54.4 24.6c-4.3 2.1-5.4 5.1-6.1 16.8-.6 11-1.5 13.1-6.4 14.1-3.8.9-4.1 4.5-.4 4.5 4.8 0 6.1 2.7 6.8 14.4.4 5.9 1.2 11.6 1.7 12.7 1.6 2.9 4.9 4.7 10.3 5.4 4.6.7 4.7.7 4.7-1.9 0-2.4-.4-2.6-3.9-2.6-5.5 0-7.1-1.9-7.2-8.8-.1-11.1-1.3-16.3-4.4-19-2.5-2.1-2.7-2.5-1.2-3.4 3.2-1.7 4.8-6.7 5.4-16.8.3-5.5 1.1-10.4 1.7-11 .7-.5 3.1-1 5.4-1.1 3.6-.3 4.2-.6 4.2-2.6s-.5-2.3-3.7-2.3c-2.1 0-5.2.7-6.9 1.6zM611 25.5c0 2.3.4 2.5 4.3 2.5 2.4 0 4.8.5 5.5 1.2.7.7 1.2 4 1.2 8 0 9.5 1.7 16.5 4.5 18.6l2.3 1.7-2.5 2.7c-2.9 3.1-4.2 8.4-4.3 18 0 7.9-1.4 9.8-7.1 9.8-3.5 0-3.9.2-3.9 2.6 0 2.6.1 2.7 4.7 2 5.3-.7 8.7-2.6 10.4-5.7.6-1.2 1.4-6.9 1.7-12.7.6-11.5 1.8-14.2 6.7-14.2 3.7 0 3.4-3.6-.4-4.5-4.9-1.1-5.8-3.1-6.3-14-.7-14.6-3.5-18.5-13.4-18.5-3 0-3.4.3-3.4 2.5zM191.4 28.1c-5.3 1.5-7.8 5.2-8.2 12.3-.5 7.9 1 11 9.4 19.3 7.5 7.4 9.7 12.6 7 16.8-3.1 4.8-8.6 2.2-8.6-4.1 0-3.5 0-3.5-4.2-3.2l-4.3.3.4 4.5c.6 8.5 5 13 12.6 13 9 0 13.8-5.2 13.8-15 0-7-.9-8.8-10-18.3-7.3-7.7-7.4-7.9-7.1-12.5.3-4.3.5-4.7 3.1-5 3.7-.4 5.7 1.3 5.7 4.9 0 2.7.2 2.9 4.1 2.9h4.2l-.5-5c-.6-5.6-2.6-8.6-7.5-10.6-3.6-1.6-5.4-1.6-9.9-.3zM298.1 28.3c-1.9.6-4.4 2.5-5.5 4-2 2.6-2.1 4.4-2.4 24-.3 20.8-.3 21.3 2 24.7 1.3 1.9 3.5 4 4.8 4.7 3.3 1.7 9.3 1.6 13.5-.1 5.9-2.5 6.5-4.9 6.5-28.3 0-14.5-.4-21.5-1.3-23.2-2.8-5.5-11-8.2-17.6-5.8zm10 10.4c.6 1.7.9 9.7.7 20-.3 14.8-.5 17.5-2 19-1.4 1.3-2.3 1.5-4.5.7l-2.8-.9-.3-19.4c-.3-21 0-22.1 4.9-22.1 2.3 0 3.2.6 4 2.7zM331.3 28.1c-1.7.5-4.3 2.3-5.7 4-2.2 2.5-2.6 4.1-2.6 9.1 0 7.5 2.4 11.9 10.4 19.6 6.3 6 8.3 10.9 6.3 15.1-1.4 2.9-5 3.9-7.3 2.1-.8-.7-1.4-3-1.4-5.2v-3.9l-4.2.3-4.3.3.2 4.8c.4 6 1.5 8.3 5.6 10.7 6.2 3.8 16.2 1.7 19.1-3.9 1.8-3.4 2.1-12.6.6-16.7-.6-1.5-4.2-5.9-8.1-9.9-7.3-7.6-9.5-11.9-7.9-16.1.7-1.8 1.7-2.4 3.8-2.4 3.6 0 5.2 1.6 5.2 5.2 0 2.6.3 2.8 4.1 2.8h4.2l-.5-5c-.6-5.6-2.6-8.6-7.5-10.6-3.6-1.6-5.4-1.6-10-.3zM86 57v29h9V63.3l5.2-.6c9.4-1.2 12.6-5.6 12.7-17.7.1-12.7-4.5-17-18.6-17H86v29zm16.4-19.4c2 1.9 2.2 13.6.4 15.2-.7.5-2.6 1.2-4.3 1.4l-3 .3-.3-9.3-.3-9.2h3c1.6 0 3.7.7 4.5 1.6zM118 57v29h25v-8h-16V60h13v-8h-13V36h16v-8h-25v29zM149 57v29h8l-.3-20c-.1-11 0-20 .3-20s2.8 8.9 5.6 19.7l5.1 19.8 4.6.3 4.7.3V28h-8l-.2 16.7-.3 16.8-2.3-9c-1.3-5-3.2-12.5-4.4-16.8l-2-7.7H149v29zM215 57v29h25v-8h-16V60h13v-8h-13V36h16v-8h-25v29zM245 57v29h8V65.3c0-11.3.3-20.4.6-20 .5.5 6.3 36.4 6.4 39.4 0 1.4 8 1.9 8 .5.1-2.7 6-39.5 6.4-40 .3-.3.6 8.8.6 20.1V86h8V28h-12.6l-2.8 20.5c-1.6 11.3-3.1 20.4-3.3 20.2-.2-.3-1.6-9.4-3.1-20.3l-2.8-19.9-6.7-.3-6.7-.3V57zM353 30.2c.1 1.3 1.3 14.2 2.8 28.8l2.7 26.5 6.1.3 6.1.3 1.6-16.3c1-9 1.7-17.4 1.7-18.8 0-1.4.4-2 .9-1.5.4.6 1.6 9 2.6 18.7l1.8 17.8h11.3l2.7-27.3c1.5-14.9 2.7-28 2.7-29 0-1.3-.8-1.7-3.5-1.7-4.1 0-3.8-1.3-6 24.5-.9 9.9-1.8 18.2-2.1 18.4-.2.2-.4 0-.4-.5s-.9-9.9-2-20.9c-1.1-11-2-20.3-2-20.8 0-.4-2.2-.7-5-.7-3.3 0-5 .4-5 1.2 0 3.8-4 41.2-4.5 41.6-.3.3-.5-.1-.5-.9 0-2.7-3.1-37.4-3.6-39.7-.4-1.8-1.1-2.2-4.4-2.2-3.5 0-4 .3-4 2.2zM401 57v29h25v-8h-16V60h13v-7.9l-6.2-.3-6.3-.3-.3-7.8-.3-7.7H426v-8h-25v29zM432 57v29h9.5c11.1 0 14.4-1.2 16.9-6.4 1.8-3.9 2.1-14 .5-18.3-.5-1.5-2-3.5-3.1-4.4-2.1-1.6-2.1-1.8-.4-3.4 3.8-3.9 4.8-12.7 2.1-19.1-2-4.8-6.3-6.4-17-6.4H432v29zm16.4-19.4c1 1 1.6 3.3 1.6 6.4 0 5.3-2.2 8-6.7 8-2.2 0-2.3-.3-2.3-8v-8h2.9c1.6 0 3.7.7 4.5 1.6zm1 24c1.9 1.9 2.2 13.4.4 15.2-.7.7-2.9 1.2-5 1.2H441V60h3.4c1.9 0 4.2.7 5 1.6zM465.5 50v4h8.5v-8h-8.5v4zM685.2 53.2c-1.9 1.9-1.5 6.6.7 7.8 3.1 1.6 4.9 1.2 6.7-1.5 1.5-2.3 1.5-2.7 0-5-1.8-2.7-5.4-3.3-7.4-1.3zM686 78.7c-2.6 1.9-2.4 6.1.5 7.7 1.1.6 2.2 1.2 2.4 1.4.3.1-.5 1.5-1.7 3.1-1.7 2.4-1.9 3.1-.8 4 1 .9 1.9.3 3.9-2.6 4.5-6.8 4.5-13.3-.2-14.6-1.1-.2-2.9.2-4.1 1zM465.8 82l-.4 4h8.6v-4c0-4 0-4-3.9-4-3.8 0-3.9.1-4.3 4z"/></g></svg>