<svg version="1.0" xmlns="http://www.w3.org/2000/svg" width="933.333" height="150.667" viewBox="0 0 700 113"><style>.dark g{color:#fff}@media (prefers-color-scheme:dark){g{fill:#fff}}</style><g transform="matrix(.1 0 0 -.1 0 113)" stroke="url('#logoGradient')" stroke-width="20" style="fill:#000"><path d="m5039 1051-29-29V633c0-433-1-423 68-443 20-5 58-10 84-10h47l3-68c3-60 5-67 23-66 11 0 61 30 110 66l90 67 217 3c213 3 217 3 242 27l26 24v795l-31 26-31 26h-790l-29-29zm831-40c14-27 14-735 0-762-10-18-24-19-228-19l-217-1-80-59-80-58-3 31c-2 21 2 35 13 44 10 7 15 19 12 28-5 12-25 15-106 15-92 0-101 2-115 22-14 19-16 72-16 375 0 204 4 362 10 377l10 26h394c381 0 396-1 406-19z"/><path d="M5260 884c-33-32-60-62-58-68 2-7 32-38 67-70 59-54 64-57 80-41 15 16 12 20-38 66l-55 49 54 48c33 30 51 53 46 60-13 22-35 12-96-44zM5397 933c-7-12 105-232 121-238 32-12 23 34-29 134-49 97-77 128-92 104zM5580 923c0-9 21-36 48-60l47-42-53-51c-44-42-51-54-42-65 15-18 19-15 93 48 31 27 57 57 57 66 0 21-111 121-134 121-9 0-16-8-16-17zM5143 564c-9-25 16-34 102-34s111 9 102 34c-5 13-24 16-102 16s-97-3-102-16zM5407 566c-7-18 12-36 38-36 30 0 49 16 42 34-8 20-73 22-80 2zM5527 566c-11-28 17-36 123-36 110 0 137 7 127 34-5 13-26 16-126 16-92 0-120-3-124-14zM5140 460c0-20 5-21 78-18 60 2 77 6 77 18s-17 16-77 18c-73 3-78 2-78-18zM5340 460c0-19 7-20 150-20s150 1 150 20-7 20-150 20-150-1-150-20zM5700 460c0-18 5-21 38-18 25 2 37 8 37 18s-12 16-37 18c-33 3-38 0-38-18zM5340 365c-20-24 1-37 56-33 41 3 49 6 49 23s-8 20-46 23c-32 2-50-2-59-13zM5493 365c-11-30 12-36 143-33 121 3 129 4 129 23s-8 20-133 23c-114 2-133 0-139-13zM193 878C94 773 55 670 62 531c3-74 9-98 40-163 20-42 56-97 82-124 43-44 48-47 63-32s13 20-25 64C77 439 77 672 220 833c35 39 40 50 30 62-17 21-22 19-57-17zM6510 895c-10-13-5-23 30-61 145-157 145-392 0-557-40-45-42-50-27-65s19-14 48 13c18 17 49 56 69 87 109 166 90 397-44 546-52 57-57 59-76 37zM544 884c-43-21-54-51-61-168-6-110-15-131-64-141-38-9-41-45-4-45 48 0 61-27 68-144 4-59 12-116 17-127 16-29 49-47 103-54 46-7 47-7 47 19 0 24-4 26-39 26-55 0-71 19-72 88-1 111-13 163-44 190-25 21-27 25-12 34 32 17 48 67 54 168 3 55 11 104 17 110 7 5 31 10 54 11 36 3 42 6 42 26s-5 23-37 23c-21 0-52-7-69-16zM6110 875c0-23 4-25 43-25 24 0 48-5 55-12s12-40 12-80c0-95 17-165 45-186l23-17-25-27c-29-31-42-84-43-180 0-79-14-98-71-98-35 0-39-2-39-26 0-26 1-27 47-20 53 7 87 26 104 57 6 12 14 69 17 127 6 115 18 142 67 142 37 0 34 36-4 45-49 11-58 31-63 140-7 146-35 185-134 185-30 0-34-3-34-25zM1914 849c-53-15-78-52-82-123-5-79 10-110 94-193 75-74 97-126 70-168-31-48-86-22-86 41 0 35 0 35-42 32l-43-3 4-45c6-85 50-130 126-130 90 0 138 52 138 150 0 70-9 88-100 183-73 77-74 79-71 125 3 43 5 47 31 50 37 4 57-13 57-49 0-27 2-29 41-29h42l-5 50c-6 56-26 86-75 106-36 16-54 16-99 3zM2981 847c-19-6-44-25-55-40-20-26-21-44-24-240-3-208-3-213 20-247 13-19 35-40 48-47 33-17 93-16 135 1 59 25 65 49 65 283 0 145-4 215-13 232-28 55-110 82-176 58zm100-104c6-17 9-97 7-200-3-148-5-175-20-190-14-13-23-15-45-7l-28 9-3 194c-3 210 0 221 49 221 23 0 32-6 40-27zM3313 849c-17-5-43-23-57-40-22-25-26-41-26-91 0-75 24-119 104-196 63-60 83-109 63-151-14-29-50-39-73-21-8 7-14 30-14 52v39l-42-3-43-3 2-48c4-60 15-83 56-107 62-38 162-17 191 39 18 34 21 126 6 167-6 15-42 59-81 99-73 76-95 119-79 161 7 18 17 24 38 24 36 0 52-16 52-52 0-26 3-28 41-28h42l-5 50c-6 56-26 86-75 106-36 16-54 16-100 3zM860 560V270h90v227l52 6c94 12 126 56 127 177 1 127-45 170-186 170h-83V560zm164 194c20-19 22-136 4-152-7-5-26-12-43-14l-30-3-3 93-3 92h30c16 0 37-7 45-16zM1180 560V270h250v80h-160v180h130v80h-130v160h160v80h-250V560zM1490 560V270h80l-3 200c-1 110 0 200 3 200s28-89 56-197l51-198 46-3 47-3v581h-80l-2-167-3-168-23 90c-13 50-32 125-44 168l-20 77h-108V560zM2150 560V270h250v80h-160v180h130v80h-130v160h160v80h-250V560zM2450 560V270h80v207c0 113 3 204 6 200 5-5 63-364 64-394 0-14 80-19 80-5 1 27 60 395 64 400 3 3 6-88 6-201V270h80v580h-126l-28-205c-16-113-31-204-33-202-2 3-16 94-31 203l-28 199-67 3-67 3V560zM3530 828c1-13 13-142 28-288l27-265 61-3 61-3 16 163c10 90 17 174 17 188s4 20 9 15c4-6 16-90 26-187l18-178h113l27 273c15 149 27 280 27 290 0 13-8 17-35 17-41 0-38 13-60-245-9-99-18-182-21-184-2-2-4 0-4 5s-9 99-20 209-20 203-20 208c0 4-22 7-50 7-33 0-50-4-50-12 0-38-40-412-45-416-3-3-5 1-5 9 0 27-31 374-36 397-4 18-11 22-44 22-35 0-40-3-40-22zM4010 560V270h250v80h-160v180h130v79l-62 3-63 3-3 78-3 77h161v80h-250V560zM4320 560V270h95c111 0 144 12 169 64 18 39 21 140 5 183-5 15-20 35-31 44-21 16-21 18-4 34 38 39 48 127 21 191-20 48-63 64-170 64h-85V560zm164 194c10-10 16-33 16-64 0-53-22-80-67-80-22 0-23 3-23 80v80h29c16 0 37-7 45-16zm10-240c19-19 22-134 4-152-7-7-29-12-50-12h-38v180h34c19 0 42-7 50-16zM4655 630v-40h85v80h-85v-40zM6852 598c-19-19-15-66 7-78 31-16 49-12 67 15 15 23 15 27 0 50-18 27-54 33-74 13zM6860 343c-26-19-24-61 5-77 11-6 22-12 24-14 3-1-5-15-17-31-17-24-19-31-8-40 10-9 19-3 39 26 45 68 45 133-2 146-11 2-29-2-41-10zM4658 310l-4-40h86v40c0 40 0 40-39 40-38 0-39-1-43-40z"/></g></svg>